<svg xmlns="http://www.w3.org/2000/svg" version="1.1" viewBox="-5.0 -10.0 110.0 135.0">
 <path d="m89.637 50.934c-0.37891-4.1055-0.76953-8.3516-0.82422-12.312v-1.7891c0.023438-10.926-0.66797-22.648-6.0312-26.734v-0.003906c-1.9023-1.4258-4.375-1.8477-6.6406-1.1328-1.1758 0.30469-2.3086 0.76562-3.3633 1.3672-2.457-5.7461-6.8086-6.293-9.457-6.0703-2.25 0.11328-4.3438 1.1875-5.75 2.9492-1.2305-2.6562-3.793-4.4414-6.7109-4.6719-3.1914-0.28125-6.3086 1.0625-8.2891 3.582-0.75 0.99609-1.3125 2.1211-1.6562 3.3203-1.8633-1.4648-4.2031-2.1797-6.5664-2.0039-4.5625 0.37891-7.6992 4.0117-7.6094 8.8359 0.066407 3.4102 0.011719 7.1523-0.042969 10.938-0.078124 5.0352-0.15625 10.246 0.042969 14.82l0.066407 1.3398c0.035156 0.65234 0.066406 1.3281 0.089843 2.0078l-1.1016-0.92969c-2.9336-2.332-6.8086-3.125-10.426-2.1289-2.6055 0.78125-4.6211 2.8555-5.3281 5.4805-0.78516 2.8633-0.67969 5.8984 0.30078 8.7031 1.3789 3.9492 3.1797 7.7383 5.3711 11.301 1.3789 2.3242 2.6328 4.7188 3.7617 7.1758 2.5938 5.9414 6.4414 13.328 13.195 17.824 5.0742 3.1953 10.973 4.8281 16.969 4.6953h0.22266c0.75781-0.011719 18.492-0.17969 26.223-4.4062 16.613-9.0664 14.988-26.648 13.555-42.156zm-15.734 38.152c-5.0078 2.7383-17.133 3.8047-24.066 3.8516-3.9062-0.21094-9.6797-0.63281-14.652-3.9375-5.7188-3.8047-9.0469-10.148-11.527-15.844v-0.003906c-1.1953-2.5977-2.5195-5.1367-3.9727-7.6016-2.0352-3.2773-3.7031-6.7656-4.9844-10.406-0.70703-1.9453-0.80469-4.0586-0.28906-6.0625 0.28125-1.168 1.1641-2.0898 2.3164-2.4219 2.1602-0.52734 4.4414-0.039062 6.1953 1.3281l1.2812 1.0742c1.0352 0.91016 2.125 1.7539 3.2656 2.5273l4.957 4.8359c3.4492 2.1875 8.668 6.2305 9.4688 8.3906l-0.003906-0.003906c0.33203 0.89453 1.1836 1.4883 2.1367 1.4922 0.26953 0 0.53906-0.046876 0.79297-0.14453 1.1758-0.4375 1.7812-1.7461 1.3438-2.9258-1.6133-4.3555-9.7031-9.6445-10.926-10.352l-3.8945-3.8633v-0.003906c0.125-1.9531 0.12891-3.9141 0.011719-5.8711l-0.054688-1.3125c-0.19922-4.4453-0.12109-9.5898-0.054687-14.562 0.054687-3.832 0.10938-7.6211 0.054687-11.074-0.054687-2.8984 1.7344-4.0781 3.4258-4.2148 2.3906-0.22266 5.1523 1.4688 5.7617 5.6016l1.2695 23.098c0.0625 1.207 1.0625 2.1562 2.2695 2.1602 0.042968 0 0.078125-0.003906 0.12109-0.003906l0.003906-0.003907c0.60156-0.03125 1.1641-0.30078 1.5664-0.74609 0.40234-0.44922 0.61328-1.0352 0.58203-1.6367v-0.011719l-1.2812-23.309c0-0.007812-0.007812-0.011718-0.007812-0.019531 0-0.011719 0.011719-0.019531 0.007812-0.03125-0.24609-3.1875-0.33203-6.2148 1.1797-8.1875v-0.003906c0.99609-1.2852 2.5781-1.9688 4.1953-1.8203 2.4492 0.25391 3.5625 1.9531 4.3867 6.7109l1.5469 26.906h-0.003906c0.0625 1.207 1.0586 2.1523 2.2695 2.1562 0.042969 0 0.089844-0.003906 0.13281-0.003906v-0.003907c0.60156-0.035156 1.1641-0.30469 1.5625-0.75391 0.40234-0.44922 0.60938-1.0391 0.57422-1.6367v-0.011718l-1.5273-26.605c1.5742-4.2852 2.4648-4.832 4.4414-5.0273 1.2383-0.14844 4.5078-0.41406 5.8242 6.9297l0.79688 24.902c0.042968 1.2305 1.0508 2.207 2.2812 2.2109 0.023437 0 0.050781-0.003906 0.078124-0.007813 1.2539-0.039062 2.2383-1.0898 2.2031-2.3477l-0.80078-25.074c-0.003906-0.0625-0.0625-0.097656-0.070312-0.15625-0.003906-0.054687 0.046875-0.097656 0.035156-0.15625v-0.015625c0.089844-0.3125 1.1562-1.1641 3.2266-1.7305v0.003907c0.89453-0.35547 1.9062-0.21484 2.6719 0.36719 4.2852 3.2656 4.2383 18.191 4.2266 23.094v1.875c0.066406 4.1328 0.46875 8.4727 0.84375 12.668 1.4375 15.473 2.7812 30.094-11.191 37.727z"/>
<text x="0.0" y="117.5" font-size="5.0" font-weight="bold" font-family="Arbeit Regular, Helvetica, Arial-Unicode, Arial, Sans-serif" fill="#000000">Created by Tarae</text><text x="0.0" y="122.5" font-size="5.0" font-weight="bold" font-family="Arbeit Regular, Helvetica, Arial-Unicode, Arial, Sans-serif" fill="#000000">from Noun Project</text></svg>