<svg xmlns="http://www.w3.org/2000/svg" version="1.1" viewBox="-5.0 -10.0 110.0 135.0">
 <path d="m82.258 18.902c-1.3164-0.78125-2.7188-1.4062-4.1797-1.8633-0.20312-0.070312-1.0391-0.22656-1.9492-0.37109-0.3125-0.046875-0.63281-0.09375-0.93359-0.14453-2.4844-5.543-6.5938-12.379-14.012-13.656-1.4805-0.26172-6.7031-0.96875-10.477 0.74219-1.3828 0.58984-2.6367 1.4492-3.6914 2.5195-0.53516 0.60156-1.0234 1.2461-1.457 1.9258-4.0625-0.52734-10.105 0.16797-13.082 5.4609-4.4102 0.3125-10.703 2.3789-12.148 8.5898v-0.003907c-2.7461 0.38672-5.3047 1.5938-7.3477 3.4648-3.668 3.3828-5.5195 8.7109-5.5195 15.84 0 11.625 1.6953 33.047 13.035 45.973l-0.003906 0.003906c5.7773 6.4844 14.062 10.172 22.75 10.117 1.1367 0 2.2734-0.058594 3.4023-0.17969 11.266-1.2305 21.207-5.3867 28.742-12.031 8.5312-7.5156 14.348-19.234 16.379-32.996 2.4414-16.449-0.94141-28.312-9.5078-33.391zm-21.91-11.207c3.5703 0.60938 6.5469 3.5156 9.3125 8.8164-2.8242 0.35547-5.5625 1.2266-8.0703 2.5703-2.1367-4.5703-6.0273-8.0859-10.793-9.7461 0.5625-0.53125 1.2109-0.96094 1.918-1.2695 1.6367-0.75391 4.6484-0.91016 7.6328-0.37109zm-14.035 5.4961c0.039062 0.003906 0.078125 0.011719 0.11719 0.023438 0.039062 0.007812 0.074218-0.027344 0.11719-0.019532 0.039063 0.007813 0.058594 0.050782 0.097656 0.058594 0.34766 0.046875 8.1562 1.2305 11.02 9.043v-0.003906c-1.793 2.0703-2.832 4.6836-2.9531 7.4219-0.20703 2.0781 0.35156 4.1602 1.5664 5.8555-1.0312 0.32422-2.125 0.40234-3.1953 0.23438 0.23438-3.1797 0.007813-6.3789-0.66797-9.4961-1.793-8.7188-7.7422-11.902-12.992-12.73 2.9688-1.3555 6.6719-0.44531 6.8906-0.38672zm-12.484 5.1836h0.20312c0.09375 0 0.16016-0.066406 0.25391-0.078125 0.066406-0.007813 0.12109 0.054687 0.19141 0.042969 0.47656-0.082032 10.918-1.8516 13.141 8.9492 1.3867 6.7266 0.88281 11.934-1.3516 14.277h-0.003906c-0.87891 0.80859-2.0547 1.2188-3.2461 1.1289-0.37891-3.2852-1.1836-6.5078-2.3906-9.5898-2.7773-6.7656-8.1602-10.555-14.77-11.004 1.9336-3.3789 6.9961-3.7266 7.9727-3.7266zm53.09 33.203c-1.0742 7.3125-4.4219 20.93-14.754 30.035-6.7852 5.9727-15.793 9.7266-26.043 10.836v-0.003907c-8.2383 1.0469-16.457-2.0586-21.949-8.2891-10.285-11.723-11.812-31.816-11.812-42.746 0-5.6758 1.3008-9.7734 3.8828-12.188 1.5859-1.4883 3.6758-2.332 5.8516-2.3633h0.20312c0.085937 0.011719 0.15625-0.082031 0.24219-0.082031 0.10156 0 0.15625 0.078125 0.25781 0.070312 6.0195-0.71875 10.871 2.1992 13.297 8.125 1.5898 3.8711 3.082 10.645 1.4102 13.559h0.003906c-0.4375 0.77344-1.2305 1.2734-2.1172 1.3359-1.4023 0.32031-2.875 0.015624-4.0391-0.83594-1.0234-1.0352-1.6172-2.4258-1.6602-3.8828 0.003906-0.64844-0.25391-1.2734-0.71484-1.7344-0.45703-0.46094-1.082-0.71875-1.7344-0.71875-0.64844 0-1.2734 0.25781-1.7305 0.71875-0.46094 0.46094-0.71875 1.0859-0.71875 1.7344 0.03125 2.8789 1.2383 5.6172 3.3477 7.5742 1.6992 1.4336 3.8672 2.1914 6.0938 2.1289 0.61719 0 1.2383-0.042968 1.8516-0.13281 2.3828-0.27734 4.4922-1.6758 5.6719-3.7656 0.54688-1.0234 0.91016-2.1328 1.082-3.2773 0.12109 0.003907 0.24609 0.03125 0.36719 0.03125h-0.003906c2.4883 0.03125 4.875-0.96875 6.5977-2.7617 1.0781-1.2695 1.8906-2.7422 2.3906-4.3359 0.64844 0.125 1.3086 0.20703 1.9688 0.25 1.293 0.003906 2.5703-0.25391 3.7656-0.74609-4.4102 5.9883-6.6953 13.277-6.5 20.711 0.019531 1.3359 1.1094 2.4102 2.4492 2.4141h0.035156c1.3477-0.027343 2.4258-1.1367 2.4141-2.4883-0.17578-12.508 6.6953-19.602 8.8125-21.484 0.26953 0.007813 0.52344 0.085937 0.79297 0.085937l-0.003907 0.003907c3.6172-0.082031 7.2031-0.66406 10.66-1.7344 0.61719-0.19531 1.1328-0.62891 1.4297-1.2031 0.29688-0.57812 0.35547-1.25 0.15625-1.8672-0.18359-0.625-0.61719-1.1484-1.1953-1.4453-0.57812-0.30078-1.2578-0.35156-1.875-0.14062-3.418 1.0859-11.445 2.5703-14.383 0.29688-0.53906-0.41797-1.2539-1.2188-1.1367-3.2617 0.51172-8.5703 11.945-8.8945 13.613-8.8984 0.55078 0.13281 1.207 0.25391 2.168 0.40625 0.58594 0.09375 1.1211 0.16797 1.2422 0.19141l0.003906-0.003907c1.0977 0.35156 2.1562 0.82813 3.1523 1.4102 9.1055 5.4023 8.3867 20.156 7.1562 28.473z"/>
<text x="0.0" y="117.5" font-size="5.0" font-weight="bold" font-family="Arbeit Regular, Helvetica, Arial-Unicode, Arial, Sans-serif" fill="#000000">Created by Tarae</text><text x="0.0" y="122.5" font-size="5.0" font-weight="bold" font-family="Arbeit Regular, Helvetica, Arial-Unicode, Arial, Sans-serif" fill="#000000">from Noun Project</text></svg>