<svg xmlns="http://www.w3.org/2000/svg" version="1.1" viewBox="-5.0 -10.0 110.0 135.0">
 <path d="m80.762 43.004c-1.8711-2.7305-4.5391-4.8125-7.6367-5.9648-0.16797-0.0625-0.82812-0.21875-1.5547-0.37891-0.09375-0.015625-0.17969-0.035156-0.27344-0.050781-0.37891-4.4141-1.4688-17.207-1.7422-22.434-0.1875-3.5234-0.78906-7.4297-3.8984-9.7383-3.4258-2.543-9.4336-2.832-12.383 0.59766v0.003906c-0.46875 0.54297-0.875 1.1406-1.207 1.7812-0.52344-0.95312-1.2344-1.7852-2.0898-2.4492-3.793-2.9102-10.117-1.3633-12.824 1.832-2.0703 2.4375-2.0391 5.7188-2.0156 8.3555v1.1406c-0.085938 5.5547 0.13672 11.18 0.36719 16.648-3.4648 0.30859-7.8242 1.8867-9.1602 6.3398-2.2109 0.21875-4.3047 1.0859-6.0195 2.5-3.1289 2.5898-4.8633 6.8359-5.1797 12.629-0.76562 14.895 1.3672 33.977 15.934 40.344h0.003906c5.3164 2.2578 11.047 3.3945 16.824 3.3398 1.6484 0 3.3203-0.085938 5-0.25391 9.2656-0.93359 16.133-3.3398 20.406-7.1523 5.0625-4.4961 8.7695-11.395 10.441-19.453 1.375-6.6953 2.8242-19.191-2.9922-27.637zm-43.18-6.3867c0.074219 0.015624 0.12891-0.078126 0.20312-0.074219 0.082032 0.003906 0.14453 0.074219 0.22656 0.066406 0.85938-0.10938 8.7266-0.77344 9.9766 7.582 1.1562 7.6641-0.75781 10.414-1.6289 11.238l0.003906 0.003906c-0.64844 0.5625-1.5039 0.83203-2.3594 0.73828-0.17188-2.6172-0.68359-5.1992-1.5156-7.6875-1.9453-5.543-5.9609-8.793-11.293-9.5391 1.793-2.4453 5.8242-2.3477 6.3867-2.3281zm41.949 33.152c-1.4805 7.1523-4.707 13.223-9.0742 17.109-3.5391 3.1523-9.7578 5.25-17.98 6.082-6.6875 0.79297-13.461-0.15625-19.672-2.75-12.961-5.6602-13.926-25.094-13.348-36.168 0.23047-4.5078 1.4297-7.6992 3.5625-9.5h-0.003906c1.2344-1.0391 2.7969-1.6133 4.4102-1.6172 0.24219 0 0.38672 0.015625 0.41016 0.015625 0.082031 0.011719 0.14062-0.0625 0.21875-0.058594 0.082031 0.003907 0.14062 0.082032 0.22266 0.074219 4.832-0.35547 8.4766 2.1836 10.156 6.9531 1.0938 3.1523 2.0078 8.5859 0.57812 10.785-0.35156 0.55859-0.96094 0.89844-1.6172 0.90234-1.0938 0.22656-2.2305-0.070312-3.0781-0.79688-0.73438-0.83203-1.1289-1.9102-1.1055-3.0195 0.039062-0.57031-0.15234-1.1289-0.53125-1.5547-0.37891-0.42969-0.91016-0.6875-1.4766-0.72266-0.57031-0.035156-1.1289 0.15625-1.5547 0.53516-0.42969 0.37891-0.6875 0.91016-0.71875 1.4805v0.011719l-0.003907-0.003906c-0.11719 2.3672 0.75391 4.6719 2.4062 6.3672 1.4688 1.3789 3.4297 2.1133 5.4414 2.0352 0.31641 0 0.65234-0.015626 0.99609-0.046876 1.9805-0.12109 3.7852-1.1836 4.8555-2.8555 0.47266-0.77734 0.8125-1.6289 1.0078-2.5156 0.1875 0.011719 0.38281 0.058593 0.56641 0.058593 1.9023 0.019532 3.7344-0.69922 5.1133-2.0078 2.0703-1.957 4.2656-6.1484 2.9297-15.008-1.3008-8.5938-7.7305-11.055-12.422-11.27-0.23047-5.4453-0.46094-11.043-0.38281-16.527v-1.2383c-0.019531-2.0234-0.042969-4.3125 0.98828-5.5312 1.3984-1.6367 5.1484-2.5469 6.9219-1.2031 1.3867 1.0625 1.7344 3.1055 2.0898 5.2656l0.19922 1.1289 0.003906 0.003906c0.55469 2.8984 0.89844 5.8359 1.0273 8.7852v0.21094c0 0.003906 0.003906 0.007812 0.003906 0.011718s-0.003906 0.007813-0.003906 0.015625l0.73438 14.395 0.003906-0.003906c0.0625 1.1445 1.0039 2.0391 2.1523 2.043 0.03125 0 0.074218-0.003906 0.10547-0.003906 1.1875-0.0625 2.1016-1.0703 2.0469-2.2578l-0.73438-14.395v-0.003906c-0.011718-0.046875-0.011718-0.09375-0.011718-0.13672-0.11719-2.8867-0.11719-3.0547-0.13672-4.9961l-0.011719-1.7188c-0.03125-3.2773 0.074219-6.375 1.7109-8.2852 1.3008-1.5273 4.7891-1.25 6.5547 0.046875 1.6719 1.2383 2.0273 3.8594 2.1641 6.5117 0.27734 5.1133 1.2695 16.82 1.6992 21.766-5.2461 0.27734-12.516 2.5859-13.367 10.23v-0.003907c-0.39453 2.3164 0.42578 4.668 2.1758 6.2344 0.41797 0.25781 0.85938 0.47656 1.3203 0.64844-4.6211 4.8594-7.2695 11.262-7.4336 17.965-0.042969 1.1875 0.88281 2.1836 2.0703 2.2344h0.085937-0.003906c1.1562 0 2.1055-0.91406 2.1523-2.0664 0.10547-6.4648 2.9922-12.57 7.9219-16.75 0.55469 0.042969 1.0938 0.18359 1.6484 0.18359v-0.003906c2.5352-0.03125 5.0586-0.35547 7.5195-0.97266 1.1484-0.29688 1.8398-1.4688 1.543-2.6172-0.30859-1.1406-1.4688-1.8281-2.6133-1.5508-2.7852 0.72656-9.2109 1.5742-11.395-0.32031h-0.003906c-0.67188-0.64844-0.94141-1.6094-0.70312-2.5117 0.77734-7.0703 10.891-6.4336 11.27-6.4062l0.015626-0.003907c0.44922 0.13281 0.8125 0.26172 1.5312 0.41406 0.45312 0.09375 0.87109 0.17969 0.94531 0.19922 2.2734 0.83594 4.2305 2.3672 5.5859 4.375 4.9141 7.1328 3.5703 18.309 2.3203 24.324z"/>
<text x="0.0" y="117.5" font-size="5.0" font-weight="bold" font-family="Arbeit Regular, Helvetica, Arial-Unicode, Arial, Sans-serif" fill="#000000">Created by Tarae</text><text x="0.0" y="122.5" font-size="5.0" font-weight="bold" font-family="Arbeit Regular, Helvetica, Arial-Unicode, Arial, Sans-serif" fill="#000000">from Noun Project</text></svg>